# xmcd CD database file
#
# Track frame offsets:
#	150
#	56849
#	79071
#	110918
#	125978
#	140798
#	177414
#	199124
#	213225
#	237940
#	260069
#	302653
#	322616
#
# Disc length: 4613 seconds
#
# Revision: 4
# Processed by: cddbd v1.4PL0 Copyright (c) Steve Scherf et al.
# Submitted via: CDex 1.50Beta5
#
DISCID=c812030d
DTITLE=Oscar Peterson and Count Basie - Night Rider and The Timekeepers
DYEAR=1978
DGENRE=Jazz
TTITLE0=Night Rider
TTITLE1=Memories Of You
TTITLE2=Sweet Lorraine
TTITLE3=It's Wonderful World
TTITLE4=9:20 Special
TTITLE5=Blues For Pamela
TTITLE6=I'm Confessin'
TTITLE7=(Back Home Again) In Indiana
TTITLE8=Hey, Raymond
TTITLE9=After You've Gone
TTITLE10=Rent Party
TTITLE11=Soft Winds
TTITLE12=That's The One
EXTD=YEAR: 1978
EXTT0=
EXTT1=
EXTT2=
EXTT3=
EXTT4=
EXTT5=
EXTT6=
EXTT7=
EXTT8=
EXTT9=
EXTT10=
EXTT11=
EXTT12=
PLAYORDER=
